<?xml version="1.0" encoding="UTF-8"?>
<svg width="512" height="512" viewBox="0 0 512 512" fill="none" xmlns="http://www.w3.org/2000/svg">
    <rect width="512" height="512" rx="50" fill="#3ECF8E"/>
    <path d="M255.997 384C194.322 384 144 333.678 144 272.003C144 210.328 194.322 160.006 255.997 160.006C317.672 160.006 367.994 210.328 367.994 272.003C367.994 333.678 317.672 384 255.997 384ZM255.997 192.007C211.765 192.007 176.001 227.771 176.001 272.003C176.001 316.235 211.765 351.999 255.997 351.999C300.229 351.999 335.993 316.235 335.993 272.003C335.993 227.771 300.229 192.007 255.997 192.007Z" fill="white"/>
    <path d="M255.997 272.003C255.997 227.771 291.761 192.007 335.993 192.007C380.225 192.007 415.989 227.771 415.989 272.003C415.989 316.235 380.225 351.999 335.993 351.999C291.761 351.999 255.997 316.235 255.997 272.003Z" fill="white"/>
</svg> 