<?xml version="1.0" encoding="UTF-8"?>
<svg width="512" height="512" viewBox="0 0 512 512" fill="none" xmlns="http://www.w3.org/2000/svg">
    <rect width="512" height="512" rx="50" fill="#539E43"/>
    <path d="M255.446 120C261.247 120 266.874 121.508 271.826 124.348L381.146 187.603C390.876 193.196 397 203.476 397 214.556V341.444C397 352.524 390.876 362.804 381.146 368.397L271.826 431.652C266.874 434.492 261.247 436 255.446 436C249.646 436 244.019 434.492 239.067 431.652L129.747 368.397C120.017 362.804 114 352.524 114 341.444V214.556C114 203.476 120.017 193.196 129.747 187.603L239.067 124.348C244.019 121.508 249.646 120 255.446 120Z" stroke="white" stroke-width="12"/>
    <path d="M395.5 212.5L257 290.5V436" stroke="white" stroke-width="12"/>
    <path d="M114.5 212.5L253 290.5" stroke="white" stroke-width="12"/>
</svg> 