<?xml version="1.0" encoding="UTF-8"?>
<svg width="512" height="512" viewBox="0 0 512 512" fill="none" xmlns="http://www.w3.org/2000/svg">
    <rect width="512" height="512" rx="50" fill="#336791"/>
    <path d="M256 120C332.393 120 394 181.607 394 258C394 334.393 332.393 396 256 396C179.607 396 118 334.393 118 258C118 181.607 179.607 120 256 120Z" stroke="white" stroke-width="12"/>
    <path d="M256 170C304.601 170 344 209.399 344 258C344 306.601 304.601 346 256 346C207.399 346 168 306.601 168 258C168 209.399 207.399 170 256 170Z" stroke="white" stroke-width="12"/>
    <path d="M256 220C276.987 220 294 237.013 294 258C294 278.987 276.987 296 256 296C235.013 296 218 278.987 218 258C218 237.013 235.013 220 256 220Z" stroke="white" stroke-width="12"/>
</svg> 