<?xml version="1.0" encoding="UTF-8"?>
<svg width="512" height="512" viewBox="0 0 512 512" fill="none" xmlns="http://www.w3.org/2000/svg">
    <rect width="512" height="512" rx="50" fill="#6DB33F"/>
    <path d="M363.5 280.5C363.5 280.5 321 308.5 256 308.5C191 308.5 148.5 280.5 148.5 280.5C148.5 280.5 191 252.5 256 252.5C321 252.5 363.5 280.5 363.5 280.5Z" stroke="white" stroke-width="12"/>
    <path d="M256 156C321 156 363.5 184 363.5 184C363.5 184 363.5 240 363.5 280.5C363.5 321 321 349 256 349C191 349 148.5 321 148.5 280.5C148.5 240 148.5 184 148.5 184C148.5 184 191 156 256 156Z" stroke="white" stroke-width="12"/>
    <path d="M297.5 252.5C297.5 252.5 276.5 266.5 256 266.5C235.5 266.5 214.5 252.5 214.5 252.5" stroke="white" stroke-width="12"/>
</svg> 