<?xml version="1.0" encoding="UTF-8"?>
<svg width="512" height="512" viewBox="0 0 512 512" fill="none" xmlns="http://www.w3.org/2000/svg">
    <rect width="512" height="512" rx="50" fill="#3178C6"/>
    <path d="M317.219 354.848V380.075C325.417 384.341 334.765 387.551 345.261 389.704C355.757 391.857 366.733 392.933 378.187 392.933C389.352 392.933 399.776 391.675 409.459 389.157C419.141 386.64 427.485 382.739 434.491 377.453C441.496 372.168 446.965 365.435 450.896 357.256C454.827 349.077 456.792 339.277 456.792 327.856C456.792 319.677 455.589 312.4 453.181 306.024C450.773 299.648 447.208 293.909 442.485 288.805C437.763 283.701 432.037 279.144 425.307 275.133C418.576 271.123 410.917 267.384 402.328 263.917C395.613 261.219 389.717 258.611 384.64 256.093C379.563 253.576 375.304 251.059 371.864 248.541C368.424 246.024 365.8 243.416 363.992 240.717C362.184 238.019 361.28 235.048 361.28 231.805C361.28 228.883 362.111 226.184 363.773 223.704C365.435 221.224 367.789 219.072 370.837 217.248C373.885 215.424 377.561 214.019 381.864 213.035C386.168 212.051 390.944 211.557 396.195 211.557C399.973 211.557 403.976 211.877 408.205 212.517C412.435 213.157 416.701 214.157 421.005 215.515C425.309 216.872 429.576 218.589 433.805 220.667C438.035 222.744 442.083 225.187 445.952 227.995V204.523C438.291 201.6 430.411 199.44 422.312 198.045C414.213 196.648 404.912 195.952 394.405 195.952C383.349 195.952 373.052 197.211 363.517 199.728C353.981 202.245 345.747 206.128 338.813 211.376C331.88 216.624 326.439 223.192 322.489 231.08C318.539 238.968 316.565 248.176 316.565 258.704C316.565 271.205 319.576 281.915 325.6 290.832C331.624 299.749 341.307 307.563 354.645 314.272C361.36 317.195 367.712 319.984 373.699 322.64C379.685 325.296 384.944 327.952 389.467 330.608C393.989 333.264 397.648 336.101 400.44 339.12C403.232 342.139 404.629 345.493 404.629 349.184C404.629 351.933 403.907 354.469 402.464 356.792C401.021 359.115 398.885 361.099 396.056 362.744C393.227 364.389 389.76 365.664 385.653 366.568C381.547 367.472 376.797 367.925 371.405 367.925C362.088 367.925 352.808 366.312 343.565 363.088C334.323 359.864 325.709 357.656 317.219 354.848ZM265.408 211.557H308.368V196.672H179.328V211.557H222.069V391.493H265.408V211.557Z" fill="white"/>
</svg> 